Coordinates
version=1
nRows=8
nColumns=36
inDegrees=yes

Units are S.I. units (second, meters, Newtons, ...)
If the header above contains a line with 'inDegrees', this indicates whether rotational values are in degrees (yes) or radians (no).

endheader
time	pelvis_tilt	pelvis_list	pelvis_rotation	pelvis_tx	pelvis_ty	pelvis_tz	hip_flexion_r	hip_adduction_r	hip_rotation_r	knee_angle_r	knee_angle_r_beta	ankle_angle_r	subtalar_angle_r	mtp_angle_r	hip_flexion_l	hip_adduction_l	hip_rotation_l	knee_angle_l	knee_angle_l_beta	ankle_angle_l	subtalar_angle_l	mtp_angle_l	lumbar_extension	lumbar_bending	lumbar_rotation	arm_flex_r	arm_add_r	arm_rot_r	elbow_flex_r	pro_sup_r	arm_flex_l	arm_add_l	arm_rot_l	elbow_flex_l	pro_sup_l
      4.43333330	     -3.44500524	      0.17844470	      0.78425500	      0.35692261	      0.96387565	     -0.11054753	     -2.10357667	     -1.83239912	    -10.00589263	      0.60642072	      0.01058404	     -3.40102342	    -16.81589517	     -7.49999987	      0.41357419	     -1.35689865	     -2.06023028	      1.63243399	      0.02849135	     -0.27917215	     -3.02511378	     -7.49999987	      5.08148395	      1.08123327	      9.13730386	   -181.33809411	    -10.59922700	   -244.38706403	      7.64807132	     42.06365017	    121.40453571	    -46.60176901	     65.53276175	     13.06439981	     57.25983307
      4.45000000	     -3.42484293	      0.19797968	      0.82860546	      0.35673316	      0.96398650	     -0.11013380	     -2.13227654	     -1.85843371	    -10.17442971	      0.59274801	      0.01034540	     -3.41733482	    -16.77194754	     -7.49999987	      0.38698808	     -1.31794854	     -1.98837486	      1.56933924	      0.02739014	     -0.48378589	     -3.31382395	     -7.49999987	      5.12639383	      1.09039528	      9.17459007	   -181.38376813	    -10.28268066	   -246.02402516	      7.17381100	     43.96711241	    121.60966412	    -46.15468645	     70.07899426	     12.01378001	     50.68576756
      4.46666670	     -3.45133808	      0.20288444	      0.83869028	      0.35678467	      0.96371753	     -0.11043935	     -2.11366448	     -1.87188894	    -10.27455329	      0.57974829	      0.01011852	     -3.42127697	    -16.69176958	     -7.49999987	      0.39168104	     -1.30545176	     -2.02543562	      1.52392453	      0.02659750	     -0.60651955	     -3.50162222	     -7.49999987	      5.19192170	      1.09292095	      9.46657811	   -181.17043329	    -10.20077811	   -246.06079160	      7.15834301	     43.69191115	    121.16297245	    -45.63432036	     67.71139905	     11.79707066	     53.53935890
      4.48333330	     -3.49027823	      0.18039934	      0.85696941	      0.35657195	      0.96065479	     -0.10993999	     -2.08461455	     -1.83503920	    -10.18674347	      0.57235456	      0.00998947	     -3.65047326	    -17.09221355	     -7.49999987	      0.42987029	     -1.30974466	     -1.98557634	      1.50807741	      0.02632092	     -0.58317033	     -3.46751231	     -7.49999987	      5.23126378	      0.97271379	     10.10905067	   -180.49474639	    -10.49705405	   -244.48285154	      7.49697096	     43.17187264	    120.82950846	    -44.56606937	     64.74644733	     11.64535272	     56.16295984
      4.50000000	     -3.49297628	      0.17689183	      0.89101335	      0.35673806	      0.96350360	     -0.11004887	     -2.10428260	     -1.80438810	    -10.19676782	      0.57573658	      0.01004850	     -3.65452288	    -17.08548720	     -7.49999987	      0.43228757	     -1.30450869	     -1.97166443	      1.50671397	      0.02629712	     -0.59298694	     -3.45684085	     -7.49999987	      5.26242175	      0.94848858	     10.15145219	   -180.49383051	    -10.48580571	   -244.48547756	      7.49369663	     43.17182565	    120.84396113	    -44.60932794	     64.74974046	     11.62863859	     56.15946816
      4.51666670	     -3.50039711	      0.14907834	      1.00450524	      0.35659678	      0.96359786	     -0.10979561	     -2.12681249	     -1.74843557	    -10.62681238	      0.54685834	      0.00954448	     -3.44470354	    -16.48110821	     -7.49999987	      0.44389887	     -1.33057716	     -1.85386505	      1.47570197	      0.02575586	     -0.60035010	     -3.18939407	     -7.49999987	      5.19615405	      1.12820529	      9.28548427	   -181.18102104	     -9.88772360	   -248.59988195	      6.72052877	     45.86503475	    121.95711872	    -45.94694975	     71.15995253	     11.21942429	     49.40138083
      4.53333330	     -3.52316316	      0.14175477	      1.06049374	      0.35683229	      0.96368215	     -0.11040123	     -2.11290824	     -1.76487844	    -10.87460170	      0.53604655	      0.00935578	     -3.50184572	    -16.49368963	     -7.49999987	      0.45991024	     -1.32078925	     -1.77742100	      1.43523900	      0.02504965	     -0.67116016	     -3.12292352	     -7.49999987	      5.14572089	      1.25045559	      8.82082215	   -181.37610035	     -9.58838438	   -248.65946192	      6.32040861	     46.45090044	    122.22429431	    -46.92308252	     69.48823476	     12.33481700	     50.21818646
      4.55000000	     -3.48248155	      0.14176845	      1.07026090	      0.35648636	      0.96347012	     -0.10973388	     -2.15443771	     -1.77243138	    -11.04826360	      0.52151857	      0.00910222	     -3.45594875	    -16.38850792	     -7.49999987	      0.40482747	     -1.32923203	     -1.83062130	      1.43799788	      0.02509780	     -0.73297886	     -3.22419693	     -7.49999987	      4.91520723	      1.17279886	      8.53917121	   -181.23838495	     -9.63151990	   -249.00885661	      6.35962105	     46.46333113	    122.91724601	    -47.07837917	     68.90960326	     12.17279794	     50.44872138
